<svg width="13" height="15" viewBox="0 0 13 15" fill="none" xmlns="http://www.w3.org/2000/svg">
<path d="M0.590917 15C0.434196 15 0.283894 14.9342 0.173076 14.8169C0.0622573 14.6997 0 14.5408 0 14.375V0.624898C1.75804e-05 0.51629 0.0267926 0.409562 0.0776861 0.315233C0.12858 0.220904 0.201835 0.14223 0.290231 0.0869651C0.378627 0.0317006 0.479114 0.00175304 0.581786 7.46521e-05C0.684457 -0.00160373 0.785771 0.025045 0.87574 0.0773938L12.6941 6.95244C12.7867 7.0064 12.864 7.08566 12.9178 7.18197C12.9716 7.27827 13 7.38808 13 7.49995C13 7.61181 12.9716 7.72163 12.9178 7.81793C12.864 7.91423 12.7867 7.9935 12.6941 8.04745L0.87574 14.9225C0.788491 14.9733 0.690516 15 0.590917 15Z" fill="#FCFCFC"/>
</svg>
