<svg width="18" height="21" viewBox="0 0 18 21" fill="none" xmlns="http://www.w3.org/2000/svg">
<path d="M3.32899 15.8838C3.32899 16.4322 3.77676 16.8799 4.32769 16.8799H5.46939V19.7016C5.46939 20.4164 6.04376 21 6.74941 21C7.45741 21 8.02943 20.4188 8.02943 19.7016V16.8775H10.0221V19.6993C10.0221 20.4141 10.5965 20.9977 11.3022 20.9977C12.0102 20.9977 12.5822 20.4164 12.5822 19.6993V16.8775H13.7239C14.2748 16.8775 14.7226 16.4299 14.7226 15.8815V6.61939H3.32899V15.8838ZM11.7007 1.8196L12.7533 0.296234C12.8143 0.207175 12.8002 0.0876494 12.7182 0.0290583C12.6361 -0.0271892 12.5189 0.000934669 12.4579 0.0899932L11.3655 1.6743C10.6457 1.39072 9.84396 1.23369 9.00234 1.23369C8.16071 1.23369 7.35894 1.39072 6.63923 1.6743L5.54675 0.0923368C5.4858 0.00327828 5.36858 -0.0271891 5.28653 0.0314021C5.20448 0.0876496 5.19041 0.204832 5.25137 0.298578L6.30398 1.82195C4.63011 2.60004 3.45793 4.07419 3.30789 5.79677H14.7015C14.5468 4.07185 13.3722 2.59769 11.7007 1.8196ZM6.59703 4.22184C6.4723 4.22184 6.35037 4.18487 6.24667 4.11559C6.14296 4.04632 6.06213 3.94786 6.0144 3.83266C5.96667 3.71746 5.95418 3.5907 5.97851 3.46841C6.00285 3.34611 6.06291 3.23378 6.1511 3.14561C6.2393 3.05744 6.35167 2.9974 6.474 2.97307C6.59633 2.94875 6.72313 2.96123 6.83836 3.00895C6.95359 3.05666 7.05208 3.13747 7.12138 3.24115C7.19067 3.34482 7.22766 3.46671 7.22766 3.5914C7.22723 3.75847 7.16065 3.91857 7.04247 4.03671C6.9243 4.15485 6.76415 4.22141 6.59703 4.22184ZM11.4827 4.22184C11.3579 4.22184 11.236 4.18487 11.1323 4.11559C11.0286 4.04632 10.9478 3.94786 10.9 3.83266C10.8523 3.71746 10.8398 3.5907 10.8642 3.46841C10.8885 3.34611 10.9486 3.23378 11.0367 3.14561C11.1249 3.05744 11.2373 2.9974 11.3596 2.97307C11.482 2.94875 11.6088 2.96123 11.724 3.00895C11.8392 3.05666 11.9377 3.13747 12.007 3.24115C12.0763 3.34482 12.1133 3.46671 12.1133 3.5914C12.1129 3.75847 12.0463 3.91857 11.9281 4.03671C11.8099 4.15485 11.6498 4.22141 11.4827 4.22184ZM16.72 6.58189C16.012 6.58189 15.44 7.16312 15.44 7.88027V12.9519C15.44 13.6667 16.0143 14.2503 16.72 14.2503C17.428 14.2503 18 13.6691 18 12.9519V7.87793C18.0023 7.16077 17.4303 6.58189 16.72 6.58189ZM1.28002 6.58189C0.572023 6.58189 0 7.16312 0 7.88027V12.9519C0 13.6667 0.574368 14.2503 1.28002 14.2503C1.98802 14.2503 2.56004 13.6691 2.56004 12.9519V7.87793C2.56004 7.16077 1.98567 6.58189 1.28002 6.58189Z" fill="white"/>
</svg>
