<svg width="925" height="648" viewBox="0 0 925 648" fill="none" xmlns="http://www.w3.org/2000/svg">
<rect width="925" height="648" fill="white"/>
<g opacity="0.4">
<path d="M660.323 489.195C727.116 433.282 791.34 371.584 856.207 333.665C879.328 320.811 901.164 315.027 923 317.598V542.538C915.293 545.752 907.586 549.608 899.237 554.107C798.405 611.948 689.224 708.351 576.19 708.994C493.983 709.637 413.703 658.864 327 622.874C335.991 624.159 344.983 625.445 353.332 626.087C413.06 631.872 538.94 590.74 660.323 489.195Z" fill="#EAEAEA"/>
<path d="M-2 613.496C57.1172 598.764 131.014 575.705 224.83 591.078C260.172 596.842 294.229 608.372 327 621.823C269.168 613.496 193.986 596.202 127.801 616.058C77.6797 630.79 32.0566 664.098 -2 691V613.496Z" fill="#EAEAEA"/>
<path d="M923 516.943V665.991C866.455 650.573 794.488 646.075 707.101 668.561C559.312 707.75 423.733 681.41 310 618.45C509.835 605.601 679.471 504.737 813.123 494.458C853.604 491.888 890.23 500.24 923 516.943Z" fill="#65B7FF"/>
<path d="M-2 443C87.8766 449.426 181.605 540.037 288.815 606.228C295.877 610.727 302.938 614.583 310 618.438C299.728 619.081 288.815 619.724 277.901 619.724C146.938 621.652 57.7037 612.655 -2 618.438V443Z" fill="#65B7FF"/>
<path d="M510.649 648.67C588.38 642.244 715.576 533.007 820.93 386.502C857.547 335.096 892.237 268.269 925 231V572.847C903.801 571.562 878.747 576.702 849.839 591.481C793.949 621.039 718.146 698.148 630.779 707.144C544.696 716.14 452.832 651.883 345.551 625.537C335.915 622.967 325.636 621.682 316 620.397C378.956 622.967 440.627 653.81 510.649 648.67Z" fill="#EC622B"/>
<path d="M-5 670.397C16.8374 669.756 39.317 667.192 61.7967 662.706C138.87 646.682 223.65 609.507 311 619.762C304.577 619.762 298.797 619.762 292.374 619.762C221.081 624.248 145.293 672.961 61.7967 742.184C39.9593 760.131 17.4797 772.95 -4.3577 780V670.397H-5Z" fill="#E1845F"/>
<path d="M663.772 600.557C777.378 635.259 857.607 636.544 916.656 571.639C919.223 568.426 922.433 565.213 925 562V828.688C873.011 858.248 808.828 846.038 742.718 783.062C654.787 697.593 584.827 641.685 515.508 623.049C452.608 606.983 386.499 625.619 296 619.193C404.47 593.488 534.763 560.072 663.772 600.557Z" fill="#009704"/>
<path d="M-2 515C69.8261 541.331 158.967 603.626 273.12 616.471C280.174 617.113 286.587 617.755 293 618.398C219.891 635.738 156.402 649.224 110.87 635.095C78.8043 625.462 38.4022 622.893 -2 624.82V515Z" fill="#009704"/>
<path opacity="0.22" d="M782.345 548.251C827.946 520.557 877.4 489.644 923 489V505.101C878.042 507.033 829.872 536.658 784.914 564.351C727.111 599.773 669.95 634.551 611.504 653.227C554.985 671.26 495.255 672.548 434.241 658.38C393.136 648.719 351.389 633.263 309 618.45C350.105 630.686 390.567 644.211 431.029 651.295C551.132 674.48 666.096 618.45 782.345 548.251Z" fill="white"/>
<path opacity="0.22" d="M-2 612.339C22.4174 605.898 46.1921 600.102 69.9669 594.949C84.7458 592.373 98.8822 589.153 113.019 587.22C127.155 585.288 141.291 584 156.07 584C185.628 584 215.828 589.797 246.671 598.17C267.233 603.966 287.795 610.407 309 618.136C289.081 612.339 269.161 606.542 249.242 602.034C219.041 594.949 189.483 590.441 160.568 591.085C145.789 591.085 132.295 592.373 117.517 594.949C102.738 596.881 87.9587 600.102 73.8223 603.322C48.7624 608.475 23.7025 615.559 -2 622V612.339Z" fill="white"/>
</g>
</svg>
