<svg width="32" height="21" viewBox="0 0 32 21" fill="none" xmlns="http://www.w3.org/2000/svg">
<path d="M17 10H19V12H17V10Z" fill="#192A32"/>
<path d="M21 10H23V12H21V10Z" fill="#192A32"/>
<path d="M13 10H15V12H13V10Z" fill="#192A32"/>
<path d="M9 10H11V12H9V10Z" fill="#192A32"/>
<path d="M21.6484 0H10.3516C4.64369 0 0 4.71028 0 10.5C0 16.2897 4.64369 21 10.3516 21H21.6484C27.3563 21 32 16.2897 32 10.5C32 4.71028 27.3563 0 21.6484 0ZM11.2891 17.1804H15.0625V19.0981H11.2891V17.1804ZM16.9375 17.1804H20.7109V19.0981H16.9375V17.1804ZM21.6484 15.2785H10.3516C7.75394 15.2785 5.64062 13.1349 5.64062 10.5C5.64062 7.86513 7.75394 5.72151 10.3516 5.72151H21.6484C24.2461 5.72151 26.3594 7.86513 26.3594 10.5C26.3594 13.1349 24.2461 15.2785 21.6484 15.2785ZM16.9375 3.81962V1.90189H20.7109V3.81962H16.9375ZM15.0625 3.81962H11.2891V1.90189H15.0625V3.81962ZM1.875 10.5C1.875 6.0804 5.17963 2.42953 9.41406 1.95476V3.88765C6.22506 4.35063 3.76562 7.1393 3.76562 10.5C3.76562 13.8607 6.22506 16.6494 9.41406 17.1124V19.0453C5.17963 18.5705 1.875 14.9196 1.875 10.5ZM22.5859 19.0452V17.1124C25.7749 16.6493 28.2344 13.8606 28.2344 10.4999C28.2344 7.13924 25.7749 4.35057 22.5859 3.88752V1.95463C26.8204 2.42953 30.125 6.0804 30.125 10.5C30.125 14.9196 26.8204 18.5705 22.5859 19.0452Z" fill="#192A32"/>
</svg>
